<svg viewBox="0 0 909.16 413.64" xmlns="http://www.w3.org/2000/svg" data-name="Layer 1" id="Layer_1"><defs><style>.cls-1{fill:#e84e1b;stroke:#1d1d1b;stroke-miterlimit:10;}.cls-2{fill:#e68a35;}.cls-3{fill:#fff;}</style></defs><rect height="557.3" width="909.16" y="-97.16" class="cls-1"></rect><path d="M667-148C569.13-5.53,594.81,450.87,836.85,384,894.72,376.35,957.23,144.41,992,262c-14.88,80.23-114.39,166.75-48.82,247.16,85.15,62,217.26,57.43,291.48-19.7,58-63.71-51.89-166,4.44-195,25.64-.52,18.34,50.29,51.51,40.2,113-68-152.67-106.17-199.22-247.35-40.71-79.17-50-178.43-123.78-236.32C845.75-219,795.51-11,834,73c34.19,84.22,127.56-22.15,230.49,80.41,74.11,58.19,244.91,295.72,73.22,318.58-202.2-44.45-107-128.63-89.46-265.23-6.37-119.61-135.59-45.87-206.46-60.21C658.4,103.69,664.24-163.06,804.77-254.6c28.06-21.19,73.55-61.86,108.21-32.18,51,48.93,99.22-92.2,23.74-82.38C814.65-352.8,722.8-251.55,667-148Z" class="cls-2"></path><path d="M477.82-359.49C313-411.87-116.31-255,17.89-42.73,42,10.45,282.06,3,179.62,70.36c-81.1,9-192.75-61.13-250.7,24.94-34.64,99.46,8,224.58,103.36,273.24,77.8,37.08,143.86-97.79,187.94-52.29,7.94,24.39-42.81,32.13-23.53,61,97.87,88.42,57.34-176.9,179-262.38,64-61.92,156.27-99.6,190.28-187,31.66-136.88-182-124.65-251.22-63.43C244-78.44,372.89-19.92,304.58,108.33c-34.2,87.79-212,320.12-283.66,162.43C4.83,64.36,113,131.12,248.81,108.25c112.63-40.77,4.59-143.07-2.23-215-12.18-188,244.8-259.73,373.15-151.77,28.42,20.72,80.53,52.46,62.17,94.23-32,63,117,68.23,85.73-1.16C716.58-277.58,593.05-336.13,477.82-359.49Z" class="cls-2"></path><path d="M340.76,237.26a12.33,12.33,0,0,1-5.08-4.18,34.3,34.3,0,0,1-3-6.27q-2.39-5.62-5.06-11.12a1.18,1.18,0,0,0-.55-.62,1.26,1.26,0,0,0-.94,0c-.85.22-1.5-1.1-25.88,1.82-1.38.16-3.83.11-5.12,2a26.93,26.93,0,0,0-2.39,4.38c-1.26,2.89-3.32,5.21-5.18,7.7a21.37,21.37,0,0,1-21.89,6.55c-1.62-.65-2.19-1.4-2.41-2a3.75,3.75,0,0,1,.66-3.14c1.5-2.52,3.2-4.93,4.83-7.37,1.51-2.26,3.06-4.49,4.59-6.74.83-1.22.71-1.6-.73-2a11,11,0,0,1-4.56-2.78c-.79-.71-.52-1.75-.18-2.58a21.36,21.36,0,0,1,8.45-10.63,12,12,0,0,1,7.31-2.23,3.27,3.27,0,0,0,2.93-1.44,55.24,55.24,0,0,0,4.66-7.16q3.8-6.62,7.57-13.23,4.91-8.62,9.8-17.25a16.35,16.35,0,0,0,1.86-3.32,3.5,3.5,0,0,0-.09-2.55,31.09,31.09,0,0,0-2-3.84c-1.37-2.16-.84-3.43,1.67-3.91,3.94-.77,7.81-2.29,11.88-2,4.81.32,9.73,1,12.84,5.26a27.78,27.78,0,0,1,5,10,37.74,37.74,0,0,0,1.47,5.17c1.28,3.26,1.56,6.72,2.15,10.1,1.18,6.77,2.75,13.46,4.45,20.1.75,3,2,5.8,2.93,8.7,1.7,5,4.05,9.78,6.12,14.64a47.15,47.15,0,0,1,3.54,7.76,7.23,7.23,0,0,1,.43,4.67,6.77,6.77,0,0,1-2.32,3.1,19,19,0,0,1-7.2,4.22C348.85,237.79,344.87,239.05,340.76,237.26ZM314.21,199c1.84,0,3.69-.05,5.54,0,2.77.09,3-.1,2.84-3.11a6.88,6.88,0,0,0-.13-.77c-.41-2.73-1.14-5.39-1.74-8.08-.93-4.17-1.84-8.36-2.77-12.53-.12-.54-.18-1.26-.9-1.29s-.59.67-.8,1.07q-5.7,11-11,22.28c-.54,1.15-.39,1.62.78,2.15a3.58,3.58,0,0,0,1.55.27Z" class="cls-3"></path><path d="M410.4,216.87a13.3,13.3,0,0,1,.73-4.75c1.42-5.27,2.74-10.57,4.14-15.85,1.87-7,4.3-13.87,6.6-20.75,1.24-3.7,2.5-7.38,3.74-11.08.11-.35.39-.77,0-1.1s-.75,0-1.1.1c-1.72.47-3.3,1.4-5.2,1.21a2.16,2.16,0,0,1-2-2.62,22.21,22.21,0,0,1,4.49-9.25,18.82,18.82,0,0,1,8.49-5.76,70.66,70.66,0,0,1,23-3.84c2.94.07,5.82.64,8.73.92a26.52,26.52,0,0,1,7,1.71c4.88,1.88,8.66,5.12,10.11,10.17a18.38,18.38,0,0,1-3.76,17.83,25.85,25.85,0,0,1-8.82,6.73c-1.69.8-3.3,1.81-4.94,2.73-.27.15-.62.3-.59.64.06.52.54.32.85.38.75.14,5.89.76,9.83,3.27a18.07,18.07,0,0,1,5,4.9c3.92,6,1.76,13.74,1,16.59-4.9,17.5-26.13,26.45-38.37,29,0,0-12.29,2.59-20.64-2.27a5.52,5.52,0,0,1-2.84-3.2c-.3-1.27.25-2.64,1.17-4.42a22.94,22.94,0,0,1,1.58-2.26c.2-.28.52-.54.35-.93s-.58-.33-.92-.34h-.8c-4.6,0-6.76-2.15-6.76-6.72Zm47.49-12c.08-5.82-2-9.67-6.08-11.89-3.76-2-8.07-2.88-12.12-4.31-.57-.2-.86,0-1,.6-.42,1.43-1,2.81-1.37,4.25-1.35,4.92-2.83,9.8-4.57,14.6a47,47,0,0,1-6.18,11.39c-1.33,1.87-2.07,2,.9,3.08a44.52,44.52,0,0,0,11.72,2.69c5.23.41,9.42-1.76,12.55-6,.47-.63.8-1.37,1.32-1.95C456.48,213.51,457.28,208.72,457.89,204.87ZM459,164.4c0-4.62-2-7.18-5.75-8.12-3-.73-4.69-.52-5.88,1.87a13.06,13.06,0,0,0-.9,2.45c-.81,3.08-1.48,6.2-2.37,9.26-1.22,4.14-2,8.4-3.42,12.49-.23.64-.1.94.72.9a8.49,8.49,0,0,0,3.65-.86,29.72,29.72,0,0,0,9.79-8A21.18,21.18,0,0,0,459,164.4Z" class="cls-3"></path><path d="M392.34,221.76c3.55.26,7.24-.81,10.87-2.16a3.19,3.19,0,0,1,.48-.19c1.81-.33,2.55-.25,2.63,1.91,0,.68-.06,1.37,0,2a10.08,10.08,0,0,1-1.68,5.9,16.53,16.53,0,0,1-11.71,8.61,19.69,19.69,0,0,1-4.34.55c-1.8-.07-3.6,0-5.4,0A32.55,32.55,0,0,1,370,235.39a12.52,12.52,0,0,1-4.67-2.88,4,4,0,0,1-.47-5.31,37.74,37.74,0,0,1,4.05-5.13c2.1-2.32,4.05-4.78,6.08-7.17,1.47-1.71,2.87-3.47,4.35-5.16,1.82-2.08,3.57-4.22,5.38-6.31,2-2.32,4-4.69,5.9-7.07.46-.56,1.34-1.27,1-1.86s-1.33.09-2,.26c-2.33.55-4.57,1.38-6.84,2.12a54,54,0,0,1-8.47,1.79,21.66,21.66,0,0,1-3,.42c-3.2,0-4.08-1.62-3.75-4.24a13.13,13.13,0,0,1,5.1-9.14,11.94,11.94,0,0,1,6.86-2.43,97.06,97.06,0,0,1,12.63.73,3.28,3.28,0,0,0,.62,0c3.38-.28,6.72.45,10.1.47a6,6,0,0,1,4.34,2.26c1.11,1.28.47,2.65-.18,3.81a208.5,208.5,0,0,1-11.14,18.47c-2.7,3.85-5.22,7.84-7.82,11.76-.43.66-.19.94.54.94Z" class="cls-3"></path><path d="M487.49,234.52c-8.31-7.31-3.08-25.57,3.5-35.38a37.12,37.12,0,0,1,8.54-8.91c8-5.94,15.52-6.57,18.37-6.43a10.48,10.48,0,0,1,3.55.75,10.78,10.78,0,0,1,4.55,3.72c2.56,3.54,2,7.26,1.38,11.1a23.1,23.1,0,0,1-4.34,9.94,55.36,55.36,0,0,1-8,8.18c-2.94,2.65-6.57,4-10.23,5.34-.67.24-1.89.2-1.68,1.12a2.37,2.37,0,0,0,2.34,2,12.61,12.61,0,0,0,4.8-.85c3.3-1.49,6.36-3.38,9.51-5.14,1.7-.95,4.5-1.76,5.43-.75,1.14,1.23-.92,4.81-1.36,5.58-4.78,8.32-15.15,11-16.76,11.35C502.44,237.22,493.11,239.46,487.49,234.52Zm25.32-41.82c-1.9-.75-6.61,7.35-6.83,7.72a34.34,34.34,0,0,0-4.34,13.3s-.95,4.67.66,6.37a.81.81,0,0,0,.43.28c1.84.54,5.3-5.93,6.75-9.08C513.08,203.5,514.78,193.48,512.81,192.7Z" class="cls-3"></path><path d="M598.47,210.25c-.12.33-1.24,3.28-2.55,3.33a1.2,1.2,0,0,1-.5-.07,2.44,2.44,0,0,1-1.65-2.42c.22-3.58-.6-7-1.18-10.52a5.78,5.78,0,0,0-.25-1.11c-.17-.4-.42-.83-1-.73s-.43.56-.48.93c-.5,3.65-1,7.32-1.41,11-.55,4.64-1,9.27-1.27,13.93a17.68,17.68,0,0,1-1.87,6.87,12.41,12.41,0,0,1-12.09,6.5,4.47,4.47,0,0,1-1.88-.68c-.41-.27-1.73-1.27-2.2-4.18-1.1-6.72,1.89-20.48,1.89-20.48.28-1.31,1.8-8.59,4.33-17.75a20.8,20.8,0,0,1,5.55-9.47c3.16-3.06,6-1.52,8.17.92a11.35,11.35,0,0,1,.8,1c.81,1.12,1.47,1.1,2.12-.18a6.21,6.21,0,0,1,3.59-3.17,3,3,0,0,1,4.17,1.69C602.85,189.88,601.05,203.26,598.47,210.25Z" class="cls-3"></path><path d="M563.75,210.25c-.12.33-1.24,3.28-2.55,3.33a1.16,1.16,0,0,1-.49-.07,2.45,2.45,0,0,1-1.66-2.42c.23-3.58-.59-7-1.18-10.52a5.11,5.11,0,0,0-.25-1.11c-.17-.4-.42-.83-1-.73s-.43.56-.48.93c-.51,3.65-1,7.32-1.41,11-.56,4.64-1,9.27-1.27,13.93a17.87,17.87,0,0,1-1.88,6.87,12.4,12.4,0,0,1-12.09,6.5,4.52,4.52,0,0,1-1.88-.68c-.4-.27-1.72-1.27-2.2-4.18-1.09-6.72,1.89-20.48,1.89-20.48.28-1.3,1.81-8.58,4.33-17.75a20.8,20.8,0,0,1,5.55-9.47c3.16-3.06,6-1.52,8.17.92.29.32.55.68.81,1,.81,1.12,1.46,1.1,2.12-.18a6.22,6.22,0,0,1,3.58-3.17,3,3,0,0,1,4.17,1.69C568.13,189.88,566.34,203.26,563.75,210.25Z" class="cls-3"></path><path d="M647,187.29c-3.66.78-5.34,5.61-6,7.59s-.62,2.89-2,7.3c-1.64,4.92-3.5,10.83-5.69,15.69-.29,1.24-1.06,1.12-1.37,0a75.88,75.88,0,0,1-2.77-17.3c-.21-6.47-.45-13.54-4.46-15.72-3.61-2-9.89.25-11.9,3.91a13.41,13.41,0,0,0-1.32,5.7,19.82,19.82,0,0,0,.54,5.6,65.8,65.8,0,0,0,2.52,9.81c1.82,5.22,6.58,18,6.58,18a3.56,3.56,0,0,1-1.64,4.88,163.83,163.83,0,0,1-39,21.45,248.4,248.4,0,0,1-49.14,14.61c-7.39,1.46-14.54,2.14-17,2.43-2.81.32-14.15,1.6-29.35,2.08-11.06.35-19.47.13-25.92,0s-11.24-.24-13.53-.56c-3.74-.53-7.5-.24-11.23-.83-10.1-1.25-20.29-1.89-30.32-3.82-5.48-1.06-9.9-1.6-12.4-2-2.14-.38-4.09-.74-5.81-1.06a8.25,8.25,0,0,0-4.71.49,52.91,52.91,0,0,0-17.21,11.65l-.06.06a4.53,4.53,0,0,0,2.35,7.56c7.87,1.66,16.56,3.28,26,4.71,14.49,2.19,26,3.21,31.92,3.67a487.69,487.69,0,0,0,54.26.91c10.93-.4,20.08-1.07,26.65-1.64,9.28-1.58,18.76-2.33,27.93-4.55a280.73,280.73,0,0,0,29-8.21c22.33-7.89,54.53-19.26,75.68-48.91a106.43,106.43,0,0,0,15.67-33.05C654.77,192.18,652.72,186.58,647,187.29Z" class="cls-3"></path><path d="M677.94,207.37c.07,19.64-9.25,37-22.39,51.12C628.7,286.39,591.75,302,555,311.91c-88.59,23.47-218.74,14.72-291.69-45.11-17.49-15-31.9-35.64-32.07-59.43-.21-27,17.35-50.09,37.72-66.12,73.16-55.06,200-62.84,286-38.33,47.68,13.64,121.85,46.92,123,104.45Zm-7.34,0c0-21.71-13.25-40.56-29.5-54.08-34-28.1-78.33-39.44-121.12-45.84a442.13,442.13,0,0,0-131,.17c-46.11,7.47-94.6,22.15-129.29,54.65-16.52,16.41-26.06,37.28-19.4,60.62,7.86,26.15,31.45,44.18,54.59,56.73,66.44,34.64,152.05,39.19,225.18,28.2,46-7.85,95.31-21.73,129.49-55,12-12.38,20.8-27.8,21.05-45.4Z" class="cls-3"></path></svg>